<?xml version="1.0" encoding="UTF-8" standalone="no"?>
<!DOCTYPE svg PUBLIC "-//W3C//DTD SVG 1.1//EN"
 "http://www.w3.org/Graphics/SVG/1.1/DTD/svg11.dtd">
<!-- Generated by graphviz version 2.48.0 (20210717.1556)
 -->
<!-- Pages: 1 -->
<svg width="510pt" height="188pt"
 viewBox="0.00 0.00 509.89 188.00" xmlns="http://www.w3.org/2000/svg" xmlns:xlink="http://www.w3.org/1999/xlink">
<g id="graph0" class="graph" transform="scale(1 1) rotate(0) translate(4 184)">
<polygon fill="white" stroke="transparent" points="-4,4 -4,-184 505.89,-184 505.89,4 -4,4"/>
<!-- A -->
<g id="node1" class="node">
<title>A</title>
<ellipse fill="lightgrey" stroke="black" cx="120.1" cy="-162" rx="27" ry="18"/>
<text text-anchor="middle" x="120.1" y="-158.3" font-family="Times,serif" font-size="14.00">A</text>
</g>
<!-- CodeBlock -->
<g id="node2" class="node">
<title>CodeBlock</title>
<ellipse fill="lightgrey" stroke="black" cx="120.1" cy="-90" rx="51.19" ry="18"/>
<text text-anchor="middle" x="120.1" y="-86.3" font-family="Times,serif" font-size="14.00">CodeBlock</text>
</g>
<!-- A&#45;&gt;CodeBlock -->
<g id="edge1" class="edge">
<title>A&#45;&gt;CodeBlock</title>
<path fill="none" stroke="black" d="M120.1,-143.7C120.1,-135.98 120.1,-126.71 120.1,-118.11"/>
<polygon fill="black" stroke="black" points="123.6,-118.1 120.1,-108.1 116.6,-118.1 123.6,-118.1"/>
</g>
<!-- Image -->
<g id="node3" class="node">
<title>Image</title>
<ellipse fill="lightgrey" stroke="black" cx="222.1" cy="-90" rx="33.29" ry="18"/>
<text text-anchor="middle" x="222.1" y="-86.3" font-family="Times,serif" font-size="14.00">Image</text>
</g>
<!-- img -->
<g id="node4" class="node">
<title>img</title>
<ellipse fill="lightgrey" stroke="black" cx="35.1" cy="-18" rx="35.19" ry="18"/>
<text text-anchor="middle" x="35.1" y="-14.3" font-family="Times,serif" font-size="14.00">&lt;img&gt;</text>
</g>
<!-- Image&#45;&gt;img -->
<g id="edge2" class="edge">
<title>Image&#45;&gt;img</title>
<path fill="none" stroke="black" d="M196.4,-78.4C191.03,-76.24 185.39,-74.01 180.1,-72 135.56,-55.06 123.77,-52.59 79.1,-36 76.59,-35.07 74.01,-34.1 71.41,-33.12"/>
<polygon fill="black" stroke="black" points="72.64,-29.84 62.05,-29.54 70.14,-36.38 72.64,-29.84"/>
</g>
<!-- video -->
<g id="node5" class="node">
<title>video</title>
<ellipse fill="lightgrey" stroke="black" cx="129.1" cy="-18" rx="40.89" ry="18"/>
<text text-anchor="middle" x="129.1" y="-14.3" font-family="Times,serif" font-size="14.00">&lt;video&gt;</text>
</g>
<!-- Image&#45;&gt;video -->
<g id="edge3" class="edge">
<title>Image&#45;&gt;video</title>
<path fill="none" stroke="black" d="M203.28,-74.83C190.06,-64.88 172.14,-51.4 157.23,-40.17"/>
<polygon fill="black" stroke="black" points="158.95,-37.09 148.85,-33.87 154.74,-42.68 158.95,-37.09"/>
</g>
<!-- svg -->
<g id="node6" class="node">
<title>svg</title>
<ellipse fill="lightgrey" stroke="black" cx="222.1" cy="-18" rx="33.6" ry="18"/>
<text text-anchor="middle" x="222.1" y="-14.3" font-family="Times,serif" font-size="14.00">&lt;svg&gt;</text>
</g>
<!-- Image&#45;&gt;svg -->
<g id="edge4" class="edge">
<title>Image&#45;&gt;svg</title>
<path fill="none" stroke="black" d="M222.1,-71.7C222.1,-63.98 222.1,-54.71 222.1,-46.11"/>
<polygon fill="black" stroke="black" points="225.6,-46.1 222.1,-36.1 218.6,-46.1 225.6,-46.1"/>
</g>
<!-- iframe -->
<g id="node7" class="node">
<title>iframe</title>
<ellipse fill="lightgrey" stroke="black" cx="319.1" cy="-18" rx="44.69" ry="18"/>
<text text-anchor="middle" x="319.1" y="-14.3" font-family="Times,serif" font-size="14.00">&lt;iframe&gt;</text>
</g>
<!-- Image&#45;&gt;iframe -->
<g id="edge5" class="edge">
<title>Image&#45;&gt;iframe</title>
<path fill="none" stroke="black" d="M241.26,-75.17C255.14,-65.15 274.16,-51.43 289.92,-40.05"/>
<polygon fill="black" stroke="black" points="292.23,-42.7 298.29,-34.01 288.14,-37.03 292.23,-42.7"/>
</g>
<!-- code -->
<g id="node8" class="node">
<title>code</title>
<ellipse fill="lightgrey" stroke="black" cx="442.1" cy="-18" rx="59.59" ry="18"/>
<text text-anchor="middle" x="442.1" y="-14.3" font-family="Times,serif" font-size="14.00">&lt;pre&gt;&lt;code&gt;</text>
</g>
<!-- Image&#45;&gt;code -->
<g id="edge6" class="edge">
<title>Image&#45;&gt;code</title>
<path fill="none" stroke="black" d="M249.96,-80.13C285.86,-68.71 348.89,-48.66 392.93,-34.64"/>
<polygon fill="black" stroke="black" points="394.11,-37.94 402.58,-31.57 391.99,-31.27 394.11,-37.94"/>
</g>
</g>
</svg>
