<?xml version="1.0" encoding="UTF-8" standalone="no"?>
<!DOCTYPE svg PUBLIC "-//W3C//DTD SVG 1.1//EN" "http://www.w3.org/Graphics/SVG/1.1/DTD/svg11.dtd">
<svg xmlns:dc="http://purl.org/dc/elements/1.1/" xmlns:xl="http://www.w3.org/1999/xlink" xmlns="http://www.w3.org/2000/svg" version="1.1" viewBox="302.75 366.75 45.5 30.5" width="45.5" height="30.5">
  <defs/>
  <metadata> Produced by OmniGraffle 7.17.2\n2020-08-04 07:24:07 +0000</metadata>
  <g id="Canvas_1" stroke="none" stroke-opacity="1" stroke-dasharray="none" fill-opacity="1" fill="none">
    <title>Canvas 1</title>
    <g id="Canvas_1_Layer_1">
      <title>Layer 1</title>
      <g id="Graphic_69">
        <rect x="304" y="379" width="43" height="6" fill="#ccc"/>
        <rect x="304" y="379" width="43" height="6" stroke="black" stroke-linecap="round" stroke-linejoin="round" stroke-width=".5"/>
      </g>
      <g id="Graphic_70">
        <path d="M 312 370 L 313 370 C 314.10457 370 315 370.89543 315 372 L 315 392 C 315 393.10457 314.10457 394 313 394 L 312 394 C 310.89543 394 310 393.10457 310 392 L 310 372 C 310 370.89543 310.89543 370 312 370 Z" fill="#666"/>
        <path d="M 312 370 L 313 370 C 314.10457 370 315 370.89543 315 372 L 315 392 C 315 393.10457 314.10457 394 313 394 L 312 394 C 310.89543 394 310 393.10457 310 392 L 310 372 C 310 370.89543 310.89543 370 312 370 Z" stroke="black" stroke-linecap="round" stroke-linejoin="round" stroke-width=".5"/>
      </g>
      <g id="Graphic_71">
        <path d="M 317 368 L 318 368 C 319.10457 368 320 368.89543 320 370 L 320 394 C 320 395.10457 319.10457 396 318 396 L 317 396 C 315.89543 396 315 395.10457 315 394 L 315 370 C 315 368.89543 315.89543 368 317 368 Z" fill="#666"/>
        <path d="M 317 368 L 318 368 C 319.10457 368 320 368.89543 320 370 L 320 394 C 320 395.10457 319.10457 396 318 396 L 317 396 C 315.89543 396 315 395.10457 315 394 L 315 370 C 315 368.89543 315.89543 368 317 368 Z" stroke="black" stroke-linecap="round" stroke-linejoin="round" stroke-width=".5"/>
      </g>
      <g id="Graphic_72">
        <path d="M 338 370 L 339 370 C 340.10457 370 341 370.89543 341 372 L 341 392 C 341 393.10457 340.10457 394 339 394 L 338 394 C 336.89543 394 336 393.10457 336 392 L 336 372 C 336 370.89543 336.89543 370 338 370 Z" fill="#666"/>
        <path d="M 338 370 L 339 370 C 340.10457 370 341 370.89543 341 372 L 341 392 C 341 393.10457 340.10457 394 339 394 L 338 394 C 336.89543 394 336 393.10457 336 392 L 336 372 C 336 370.89543 336.89543 370 338 370 Z" stroke="black" stroke-linecap="round" stroke-linejoin="round" stroke-width=".5"/>
      </g>
      <g id="Graphic_73">
        <path d="M 333 368 L 334 368 C 335.10457 368 336 368.89543 336 370 L 336 394 C 336 395.10457 335.10457 396 334 396 L 333 396 C 331.89543 396 331 395.10457 331 394 L 331 370 C 331 368.89543 331.89543 368 333 368 Z" fill="#666"/>
        <path d="M 333 368 L 334 368 C 335.10457 368 336 368.89543 336 370 L 336 394 C 336 395.10457 335.10457 396 334 396 L 333 396 C 331.89543 396 331 395.10457 331 394 L 331 370 C 331 368.89543 331.89543 368 333 368 Z" stroke="black" stroke-linecap="round" stroke-linejoin="round" stroke-width=".5"/>
      </g>
    </g>
  </g>
</svg>
