<?xml version="1.0" encoding="UTF-8" standalone="no"?>
<!DOCTYPE svg PUBLIC "-//W3C//DTD SVG 1.1//EN" "http://www.w3.org/Graphics/SVG/1.1/DTD/svg11.dtd">
<svg xmlns:dc="http://purl.org/dc/elements/1.1/" xmlns:xl="http://www.w3.org/1999/xlink" xmlns="http://www.w3.org/2000/svg" version="1.1" viewBox="302.75 398.75 45.5 30.5" width="45.5" height="30.5">
  <defs/>
  <metadata> Produced by OmniGraffle 7.17.2\n2020-08-04 07:24:07 +0000</metadata>
  <g id="Canvas_1" stroke="none" stroke-opacity="1" stroke-dasharray="none" fill-opacity="1" fill="none">
    <title>Canvas 1</title>
    <g id="Canvas_1_Layer_1">
      <title>Layer 1</title>
      <g id="Graphic_74">
        <rect x="304" y="411" width="43" height="6" fill="#ccc"/>
        <rect x="304" y="411" width="43" height="6" stroke="black" stroke-linecap="round" stroke-linejoin="round" stroke-width=".5"/>
      </g>
      <g id="Graphic_75">
        <path d="M 307 404 L 308 404 C 309.10457 404 310 404.89543 310 406 L 310 422 C 310 423.10457 309.10457 424 308 424 L 307 424 C 305.89543 424 305 423.10457 305 422 L 305 406 C 305 404.89543 305.89543 404 307 404 Z" fill="#666"/>
        <path d="M 307 404 L 308 404 C 309.10457 404 310 404.89543 310 406 L 310 422 C 310 423.10457 309.10457 424 308 424 L 307 424 C 305.89543 424 305 423.10457 305 422 L 305 406 C 305 404.89543 305.89543 404 307 404 Z" stroke="black" stroke-linecap="round" stroke-linejoin="round" stroke-width=".5"/>
      </g>
      <g id="Graphic_76">
        <path d="M 312 402 L 313 402 C 314.10457 402 315 402.89543 315 404 L 315 424 C 315 425.10457 314.10457 426 313 426 L 312 426 C 310.89543 426 310 425.10457 310 424 L 310 404 C 310 402.89543 310.89543 402 312 402 Z" fill="#666"/>
        <path d="M 312 402 L 313 402 C 314.10457 402 315 402.89543 315 404 L 315 424 C 315 425.10457 314.10457 426 313 426 L 312 426 C 310.89543 426 310 425.10457 310 424 L 310 404 C 310 402.89543 310.89543 402 312 402 Z" stroke="black" stroke-linecap="round" stroke-linejoin="round" stroke-width=".5"/>
      </g>
      <g id="Graphic_77">
        <path d="M 317 400 L 318 400 C 319.10457 400 320 400.89543 320 402 L 320 426 C 320 427.10457 319.10457 428 318 428 L 317 428 C 315.89543 428 315 427.10457 315 426 L 315 402 C 315 400.89543 315.89543 400 317 400 Z" fill="#666"/>
        <path d="M 317 400 L 318 400 C 319.10457 400 320 400.89543 320 402 L 320 426 C 320 427.10457 319.10457 428 318 428 L 317 428 C 315.89543 428 315 427.10457 315 426 L 315 402 C 315 400.89543 315.89543 400 317 400 Z" stroke="black" stroke-linecap="round" stroke-linejoin="round" stroke-width=".5"/>
      </g>
      <g id="Graphic_78">
        <path d="M 343 404 L 344 404 C 345.10457 404 346 404.89543 346 406 L 346 422 C 346 423.10457 345.10457 424 344 424 L 343 424 C 341.89543 424 341 423.10457 341 422 L 341 406 C 341 404.89543 341.89543 404 343 404 Z" fill="#666"/>
        <path d="M 343 404 L 344 404 C 345.10457 404 346 404.89543 346 406 L 346 422 C 346 423.10457 345.10457 424 344 424 L 343 424 C 341.89543 424 341 423.10457 341 422 L 341 406 C 341 404.89543 341.89543 404 343 404 Z" stroke="black" stroke-linecap="round" stroke-linejoin="round" stroke-width=".5"/>
      </g>
      <g id="Graphic_79">
        <path d="M 338 402 L 339 402 C 340.10457 402 341 402.89543 341 404 L 341 424 C 341 425.10457 340.10457 426 339 426 L 338 426 C 336.89543 426 336 425.10457 336 424 L 336 404 C 336 402.89543 336.89543 402 338 402 Z" fill="#666"/>
        <path d="M 338 402 L 339 402 C 340.10457 402 341 402.89543 341 404 L 341 424 C 341 425.10457 340.10457 426 339 426 L 338 426 C 336.89543 426 336 425.10457 336 424 L 336 404 C 336 402.89543 336.89543 402 338 402 Z" stroke="black" stroke-linecap="round" stroke-linejoin="round" stroke-width=".5"/>
      </g>
      <g id="Graphic_80">
        <path d="M 333 400 L 334 400 C 335.10457 400 336 400.89543 336 402 L 336 426 C 336 427.10457 335.10457 428 334 428 L 333 428 C 331.89543 428 331 427.10457 331 426 L 331 402 C 331 400.89543 331.89543 400 333 400 Z" fill="#666"/>
        <path d="M 333 400 L 334 400 C 335.10457 400 336 400.89543 336 402 L 336 426 C 336 427.10457 335.10457 428 334 428 L 333 428 C 331.89543 428 331 427.10457 331 426 L 331 402 C 331 400.89543 331.89543 400 333 400 Z" stroke="black" stroke-linecap="round" stroke-linejoin="round" stroke-width=".5"/>
      </g>
    </g>
  </g>
</svg>
